<?xml version="1.0" encoding="utf-8"?>
<!-- Generator: Adobe Illustrator 25.3.1, SVG Export Plug-In . SVG Version: 6.00 Build 0)  -->
<svg version="1.1" id="logo" xmlns="http://www.w3.org/2000/svg" xmlns:xlink="http://www.w3.org/1999/xlink" x="0px" y="0px"
	 viewBox="0 0 531.9 189" style="enable-background:new 0 0 531.9 189;" xml:space="preserve">
<style type="text/css">
	.st0{fill:#FFFFFF;}
	.st1{fill:#21448B;}
	.st2{fill:#BA2131;}
</style>
<rect id="bg" class="st0" width="531.9" height="189"/>
<rect id="blue" x="9.6" y="10" class="st1" width="512" height="99.6"/>
<path id="red" class="st2" d="M10.1,114.8H522l-0.1,64.2H10L10.1,114.8z"/>
<path id="text" class="st0" d="M10.3,27.7H9.6v-3.4c7,0,14.5,1,20.9,2.7l4.1-17H56L45.7,32.8c3.5,1.8,6.8,3.8,9.9,6L73.7,10h24.8
	L88,21.6H76.5v13.2L65.8,47c4,3.9,7.6,8.1,10.7,12.7v6.8c-3.6-6.2-8-11.9-13.1-16.8l-52.8,59.7l43.1-67.7c-3-2.1-6.2-4-9.6-5.7
	l-33.4,72.8l18.8-78.5C23.4,28.6,16.9,27.8,10.3,27.7z M90.6,105.4c0-2.9-0.2-4.4-0.5-7.2h-3.7c0.3,2.8,0.5,4.3,0.5,7.2
	c0,0.2,0,0.4,0,0.7v3.6h3.7v-3.5C90.6,105.9,90.6,105.6,90.6,105.4z M100.5,44.5h24l-1.3-19H80.3v69.4h20V72.5H120V53.6h-19.5V44.5z
	 M159.1,24.8c-19.5,0-35.4,15.7-35.4,35.1S139.5,95,159.1,95c19.5,0,35.4-15.7,35.4-35.1S178.7,24.8,159.1,24.8z M165.3,74.1
	c0,3.4-2.8,6-6.2,6s-6.2-2.7-6.2-6.1V44.5c0-3.4,2.8-6.4,6.2-6.4s6.4,3,6.4,6.4L165.3,74.1z M226.9,58.4l21.4,35.7H226l-10.1-16.9
	L206,94.1h-21.8l20.6-35.5L185,25.5h22.2l8.6,14.3l8.3-14.3h22.1L226.9,58.4z M307,25.5h17.2v69.3h-16.8l-23.7-40.2v40.2H266
	l0.2-69.3h20l20.8,35V25.5z M345.9,78.7h27.6v16.2h-44.9V25.5h44.6v16.2h-27.3v10.2h22.4v15h-22.4L345.9,78.7L345.9,78.7z
	 M457.5,25.5l-16.2,69.4h-15.8l-8.2-39.5l-7.9,39.5h-16.2l-16.1-69.4h17.7l8.3,40.5l8-40.5H426l8.4,40.1l8.6-40.1H457.5z
	 M501.8,57.9c3.8,3.5,5.8,8.6,5.8,14.8c0,5.8-2.1,11.3-5.9,15.4c-4.9,5.3-11.8,8.2-20,8.2c-15.2,0-25.1-7.8-27.9-21.2l16.8-3.7
	c1.3,5.8,5,8.7,11.5,8.7c4.2,0,6.7-2.1,6.7-4.8c0-5.1-4.2-4.9-12.2-7.3c-13.5-4-20.1-9.6-20.1-21c0-13.2,9.7-23,25.7-23
	c11.7,0,19.9,6.1,23.7,17.4l-15.3,5.1c-1.8-5-4.7-7-9.7-7c-3.6,0-6.1,2.3-6.1,5c0,4.1,3.9,4.3,10.9,6.3
	C491.7,52.5,497.2,53.6,501.8,57.9z M146.6,171.6h-15.4v-36.2h14.4v4.9c2.6-3.7,6.3-5.6,11.2-5.6c5.3,0,9.1,1.9,11.5,5.6
	c2.7-3.7,6.7-5.6,12.2-5.6c2.6,0,4.9,0.5,6.9,1.5s3.4,2.2,4.3,3.8c0.9,1.5,1.3,3.9,1.3,7.1v24.6h-15.5V149c0-1.5-0.2-2.6-0.7-3.2
	c-0.5-0.6-1.4-0.9-2.6-0.9c-3,0-4.5,1.9-4.5,5.8v20.9h-15.4V149c0-2.9-1.3-4.3-3.8-4.3c-2.6,0-3.9,1.4-3.9,4.3V171.6z M216.1,167.1
	c4.1,3.5,9.6,5.3,16.5,5.3c6.2,0,11.1-1.2,14.7-3.7c3.6-2.5,5.9-5.5,6.8-9.1l-15-0.9c-0.6,3-2.7,4.4-6.2,4.4c-2.4,0-4-0.6-4.9-1.7
	c-0.9-1.1-1.3-2.8-1.4-5.1H254c0-0.9,0-1.6,0-2.1c0-6-2-10.8-6.1-14.3c-4-3.5-9.3-5.3-15.9-5.3c-6.8,0-12.2,1.9-16.2,5.6
	s-6.1,8.3-6.1,13.7C210,159.2,212,163.6,216.1,167.1z M232.4,143.1c1.6,0,2.9,0.4,4,1.3c1.1,0.8,1.6,2.5,1.7,4.9h-11.4
	C226.7,145.1,228.6,143.1,232.4,143.1z M284.8,172.4c5.1,0,8.8-1.9,11-5.6v4.8h15.1v-48.7h-15.8v15.4c-2.6-2.7-6-4.1-10-4.1
	c-4.9,0-8.8,1.7-11.7,5.1c-3,3.4-4.4,8.1-4.4,13.9c0,6.2,1.5,11,4.4,14.3C276.3,170.7,280.1,172.4,284.8,172.4z M286.4,146.5
	c0.7-2.1,2-3.1,4.2-3.1c3,0,4.5,1.6,4.5,4.9v9c0,1.9-0.5,3.3-1.3,4.2c-0.9,0.9-2,1.4-3.3,1.4c-3.4,0-5.1-2.9-5.1-8.8
	C285.4,151.1,285.7,148.6,286.4,146.5z M347,171.6h-16.2v-36.2H347V171.6z M347,132.7h-16.2v-11.3H347V132.7z M369.8,152.3
	c-3.9,2.4-5.9,5.4-5.9,9.3c0,2.8,1.2,5.3,3.6,7.5s6,3.3,10.8,3.3c5.9,0,10.3-1.9,13.2-5.8c0,1.8,0.2,3.5,0.6,5h15.3
	c-0.8-1.9-1.2-4.3-1.2-7v-14.4c0-3.9-0.3-6.6-0.8-7.9c-0.6-1.4-1.6-2.7-3.2-3.9s-3.8-2.1-6.6-2.7c-2.8-0.6-5.8-0.9-9.1-0.9
	c-12.2,0-19.3,3.8-21.4,11.3l14.6,1.2c0.4-2.6,2.5-3.9,6.2-3.9c1.6,0,2.8,0.3,3.6,0.8c0.8,0.5,1.2,1.6,1.2,3.2v0.8
	C380.7,148.6,373.8,150,369.8,152.3z M390.8,156.4c0,3.1-0.6,5.1-1.8,6c-1.2,0.9-2.7,1.4-4.4,1.4c-2.7,0-4.1-1.1-4.1-3.3
	c0-3.2,3.4-5.2,10.3-5.8V156.4z"/>
</svg>
